<?xml version="1.0" encoding="utf-8"?>
<!-- Generator: Adobe Illustrator 22.0.0, SVG Export Plug-In . SVG Version: 6.00 Build 0)  -->
<svg version="1.1" id="Layer_1" xmlns="http://www.w3.org/2000/svg" xmlns:xlink="http://www.w3.org/1999/xlink" x="0px" y="0px"
	 viewBox="0 0 595.3 841.9" style="enable-background:new 0 0 595.3 841.9;" xml:space="preserve">
<style type="text/css">
	.st0{fill:#415BA9;}
	.st1{fill:#4566B0;}
	.st2{fill:#FFFFFF;}
	.st3{fill:none;}
</style>
<polygon class="st0" points="116.5,214.5 478.5,214.5 446.3,584 297.5,625.9 148,584.5 "/>
<polygon class="st1" points="297.5,245 445.5,245 417,560 297.6,594 "/>
<polygon class="st2" points="179,287 415,287 394,520 297.6,547 202,522 194,449 241,449 245,483 297,500 349,483 354,425 194,426 
	188,380 356,380 360,333 184,333 "/>
<g>
	<rect x="155" y="123" class="st3" width="284" height="86"/>
	<path d="M269.6,192.5c-2.4,1.1-7,1.8-12,1.8c-15.4,0-25.2-9.3-25.2-25c0-14.5,9.6-26,27.4-26c3.5,0,7.3,0.5,10.1,1.5l-2.3,12.9
		c-1.5-0.6-3.7-1.1-6.8-1.1c-6.4,0-10.9,4.6-10.9,12c0,8,4.9,12.1,11.1,12.1c2.7,0,4.9-0.4,6.9-1.2L269.6,192.5z"/>
	<path d="M281.5,178.9c2.6,1.6,8.2,3.4,12.3,3.4c3.5,0,5.1-0.9,5.1-2.8c0-1.9-1.2-2.8-6.1-4.6c-10.2-3.8-13.2-9.6-13.1-14.8
		c0-9.6,7.8-16.8,20.1-16.8c5.5,0,10.3,1.2,13.4,2.6l-2.7,11.9c-2.2-1.1-6.1-2.5-9.7-2.5c-3.1,0-4.7,1-4.7,2.9
		c0,1.6,1.4,2.6,6.9,4.7c9.2,3.5,12.3,8.7,12.4,15.1c0,9.6-7.3,16.3-21.3,16.3c-6.1,0-11.9-1.4-15.3-3.3L281.5,178.9z"/>
	<path d="M328.3,178.9c2.6,1.6,8.2,3.4,12.3,3.4c3.5,0,5.1-0.9,5.1-2.8c0-1.9-1.2-2.8-6.1-4.6c-10.2-3.8-13.2-9.6-13.1-14.8
		c0-9.6,7.8-16.8,20.1-16.8c5.5,0,10.3,1.2,13.4,2.6l-2.7,11.9c-2.2-1.1-6.1-2.5-9.7-2.5c-3.1,0-4.7,1-4.7,2.9
		c0,1.6,1.4,2.6,6.9,4.7c9.2,3.5,12.3,8.7,12.4,15.1c0,9.6-7.3,16.3-21.3,16.3c-6.1,0-11.9-1.4-15.3-3.3L328.3,178.9z"/>
</g>
<g>
</g>
<g>
</g>
<g>
</g>
<g>
</g>
<g>
</g>
<g>
</g>
</svg>
