<?xml version="1.0" encoding="utf-8"?>
<!-- Generator: Adobe Illustrator 22.0.0, SVG Export Plug-In . SVG Version: 6.00 Build 0)  -->
<svg version="1.1" id="Layer_1" xmlns="http://www.w3.org/2000/svg" xmlns:xlink="http://www.w3.org/1999/xlink" x="0px" y="0px"
	 viewBox="0 0 595.3 841.9" style="enable-background:new 0 0 595.3 841.9;" xml:space="preserve">
<style type="text/css">
	.st0{fill:#E44F25;}
	.st1{fill:#F0672A;}
	.st2{fill:#FFFFFF;}
	.st3{fill:none;}
</style>
<polygon class="st0" points="116.5,206.5 478.5,206.5 446.3,576 297.5,617.9 148,576.5 "/>
<polygon class="st1" points="297.5,237 445.5,237 417,552 297.6,586 "/>
<polygon class="st2" points="184,283 410.5,283 407,328.5 233,328.5 237.5,374.5 402.5,374.5 390,514 297.3,539.5 204,514.5 
	198.5,442 243,442.5 246.5,478 297.3,492 348,478 352,420.9 195.5,420.9 "/>
<g>
	<rect x="192.2" y="128.5" class="st3" width="227.5" height="59.4"/>
	<path d="M214.9,131.5v17.6h18.3v-17.6h13.6v48.5h-13.6v-19.2h-18.3v19.2h-13.6v-48.5H214.9z"/>
	<path d="M270.5,142.6h-13.7v-11.1h41.3v11.1h-14v37.4h-13.6V142.6z"/>
	<path d="M352.4,162c-0.1-6-0.2-12.7-0.2-21.2H352c-1.7,6.9-4,14.5-5.9,20.7l-5.3,17.6H330l-4.3-17.5c-1.4-6-3-13.5-4.3-20.7h-0.1
		c-0.3,7.4-0.5,15.1-0.7,21.2l-0.7,18.1h-12.8l2.7-48.5h19.4l3.2,12.2c1.4,5.2,2.9,11.9,4,18h0.3c1.6-6.1,3.4-13.3,4.9-18.1
		l3.8-12.1h18.9l2.2,48.5h-13.5L352.4,162z"/>
	<path d="M378.6,131.5h13.6v37.2h21v11.4h-34.6V131.5z"/>
</g>
<g>
	<polygon class="st3" points="86.3,138 91,138 91,138 86.3,138 	"/>
</g>
<g>
</g>
<g>
</g>
<g>
</g>
<g>
</g>
<g>
</g>
<g>
</g>
</svg>
