<?xml version="1.0" encoding="utf-8"?>
<!-- Generator: Adobe Illustrator 22.0.0, SVG Export Plug-In . SVG Version: 6.00 Build 0)  -->
<svg version="1.1" id="Layer_1" xmlns="http://www.w3.org/2000/svg" xmlns:xlink="http://www.w3.org/1999/xlink" x="0px" y="0px"
	 viewBox="0 0 595.3 841.9" style="enable-background:new 0 0 595.3 841.9;" xml:space="preserve">
<style type="text/css">
	.st0{fill:#E4A128;}
	.st1{fill:#EFBE1E;}
	.st2{fill:#FFFFFF;}
	.st3{fill:none;}
</style>
<polygon class="st0" points="116.5,214.5 478.5,214.5 446.3,584 297.5,625.9 148,584.5 "/>
<polygon class="st1" points="297.5,245 445.5,245 417,560 297.6,594 "/>
<polygon class="st2" points="211.7,259.3 394.3,259.3 403,356.7 356.3,356.7 352.3,310.7 256.3,308 247.7,378 403,380.7 389,518 
	297.6,544 203,517.3 197,447.3 243.7,447.3 248.3,482 297.5,496.7 345.7,483.3 353,424.7 197,424 "/>
<g>
	<rect x="175.3" y="127" class="st3" width="249.3" height="108"/>
	<path d="M268.7,130.1H286v42.5c0,20.1-9.8,25.9-24,25.9c-3.5,0-7.7-0.5-10.6-1.5l1.7-14.1c1.9,0.6,4.3,1,6.9,1c5,0,8.6-2.2,8.6-11
		V130.1z"/>
	<path d="M302.9,180.3c3.7,1.9,9.8,3.7,15.7,3.7c6.1,0,9-2.3,9-5.7c0-3.5-3-5.4-10.1-8.3c-11.2-4.8-17.1-11.4-17.1-19.9
		c0-11.7,9.2-21,25.8-21c7,0,12.4,1.4,16.1,3.1l-3.3,14.1c-2.6-1.3-7-2.9-12.9-2.9c-5.4,0-8.3,2.2-8.3,5.2c0,3.3,2.9,4.8,11.2,8.3
		c11.3,4.7,16,11.4,16,20c0,12-9.2,21.4-27.2,21.4c-7.4,0-14.6-1.9-18-3.7L302.9,180.3z"/>
</g>
<g>
</g>
<g>
</g>
<g>
</g>
<g>
</g>
<g>
</g>
<g>
</g>
</svg>
